<svg id="Layer_1" data-name="Layer 1" xmlns="http://www.w3.org/2000/svg" viewBox="0 0 105.86 105.86"><defs><style>.cls-1{fill:#fff;}</style></defs><title>shelf</title><path class="cls-1" d="M99.66,81.51V8.58A2.39,2.39,0,0,0,97.28,6.2H8.58A2.39,2.39,0,0,0,6.2,8.58v4.58a1.55,1.55,0,0,0,3.1,0V9.3H96.56V40.63H85.33a10.84,10.84,0,0,0,3.27-7.76V25a10.86,10.86,0,1,0-21.71,0v7.85a10.84,10.84,0,0,0,3.26,7.76H60.52a10.84,10.84,0,0,0,3.26-7.76V25a10.86,10.86,0,1,0-21.71,0v7.85a10.84,10.84,0,0,0,3.27,7.76H35.71A10.84,10.84,0,0,0,39,32.87V25a10.86,10.86,0,1,0-21.71,0v7.85a10.84,10.84,0,0,0,3.27,7.76H9.3V19.81a1.55,1.55,0,0,0-3.1,0v61.7a2.39,2.39,0,0,0,2.38,2.38h88.7A2.39,2.39,0,0,0,99.66,81.51ZM70,32.87V25a7.75,7.75,0,1,1,15.5,0v7.85a7.76,7.76,0,0,1-6.17,7.59V37.05l3.09-1.84a1.55,1.55,0,1,0-1.59-2.66l-1.5.89V30.87L82.41,29a1.55,1.55,0,1,0-1.59-2.66l-1.5.89v-.9a1.55,1.55,0,1,0-3.1,0v.94l-1.56-.93A1.55,1.55,0,1,0,73.07,29l3.15,1.88v2.57l-1.56-.93a1.55,1.55,0,1,0-1.59,2.66l3.15,1.88v3.39A7.77,7.77,0,0,1,70,32.87Zm-24.81,0V25a7.75,7.75,0,1,1,15.5,0v7.85a7.76,7.76,0,0,1-6.17,7.59V37.05l3.09-1.84A1.55,1.55,0,1,0,56,32.55l-1.5.89V30.87L57.6,29A1.55,1.55,0,1,0,56,26.37l-1.5.89v-.9a1.55,1.55,0,1,0-3.1,0v.94l-1.56-.93A1.55,1.55,0,1,0,48.26,29l3.15,1.88v2.57l-1.56-.93a1.55,1.55,0,1,0-1.59,2.66l3.15,1.88v3.39A7.77,7.77,0,0,1,45.18,32.87Zm-24.81,0V25a7.75,7.75,0,1,1,15.5,0v7.85a7.76,7.76,0,0,1-6.17,7.59V37.05l3.09-1.84a1.55,1.55,0,1,0-1.59-2.66l-1.5.89V30.87L32.79,29a1.55,1.55,0,1,0-1.59-2.66l-1.5.89v-.9a1.55,1.55,0,1,0-3.1,0v.94L25,26.37A1.55,1.55,0,1,0,23.45,29l3.15,1.88v2.57L25,32.55a1.55,1.55,0,1,0-1.59,2.66l3.15,1.88v3.39A7.77,7.77,0,0,1,20.37,32.87ZM96.56,43.73v3.1H9.3v-3.1ZM29.7,80.62V77.21l3.09-1.84a1.55,1.55,0,0,0,.54-2.13,1.57,1.57,0,0,0-2.13-.54l-1.5.9V71l3.09-1.84a1.55,1.55,0,0,0,.54-2.13,1.57,1.57,0,0,0-2.13-.54l-1.5.9v-.9a1.55,1.55,0,0,0-3.1,0v.94L25,66.52a1.57,1.57,0,0,0-2.13.54,1.55,1.55,0,0,0,.54,2.13l3.15,1.88v2.57L25,72.7a1.57,1.57,0,0,0-2.13.54,1.55,1.55,0,0,0,.54,2.13l3.15,1.88v3.39A7.77,7.77,0,0,1,20.37,73V65.18a7.75,7.75,0,1,1,15.5,0V73A7.76,7.76,0,0,1,29.7,80.62Zm24.81,0V77.21l3.09-1.84a1.55,1.55,0,0,0,.54-2.13A1.57,1.57,0,0,0,56,72.7l-1.5.9V71l3.09-1.84a1.55,1.55,0,0,0,.54-2.13A1.57,1.57,0,0,0,56,66.52l-1.5.9v-.9a1.55,1.55,0,0,0-3.1,0v.94l-1.56-.94a1.57,1.57,0,0,0-2.13.54,1.55,1.55,0,0,0,.54,2.13l3.15,1.88v2.57l-1.56-.94a1.57,1.57,0,0,0-2.13.54,1.55,1.55,0,0,0,.54,2.13l3.15,1.88v3.39A7.77,7.77,0,0,1,45.18,73V65.18a7.75,7.75,0,1,1,15.5,0V73A7.76,7.76,0,0,1,54.51,80.62Zm24.81,0V77.21l3.09-1.84A1.55,1.55,0,0,0,83,73.24a1.57,1.57,0,0,0-2.13-.54l-1.5.9V71l3.09-1.84A1.55,1.55,0,0,0,83,67.06a1.57,1.57,0,0,0-2.13-.54l-1.5.9v-.9a1.55,1.55,0,0,0-3.1,0v.94l-1.56-.94a1.57,1.57,0,0,0-2.13.54,1.55,1.55,0,0,0,.54,2.13l3.15,1.88v2.57l-1.56-.94a1.57,1.57,0,0,0-2.13.54,1.55,1.55,0,0,0,.54,2.13l3.15,1.88v3.39A7.77,7.77,0,0,1,70,73V65.18a7.75,7.75,0,1,1,15.5,0V73A7.76,7.76,0,0,1,79.32,80.62Zm6,.17A10.86,10.86,0,0,0,88.6,73V65.18a10.86,10.86,0,1,0-21.71,0V73a10.85,10.85,0,0,0,3.26,7.76H60.52A10.85,10.85,0,0,0,63.78,73V65.18a10.86,10.86,0,1,0-21.71,0V73a10.86,10.86,0,0,0,3.27,7.76H35.71A10.85,10.85,0,0,0,39,73V65.18a10.86,10.86,0,1,0-21.71,0V73a10.86,10.86,0,0,0,3.27,7.76H9.3V49.93H96.56V80.79Z"/><path class="cls-1" d="M103.48,0H85.94a1.55,1.55,0,1,0,0,3.1h16.82V92.63a1.55,1.55,0,0,0,3.1,0V2.38A2.39,2.39,0,0,0,103.48,0Z"/><path class="cls-1" d="M104.31,97.69a1.55,1.55,0,0,0-1.55,1.55v3.52H3.1V3.1H79.53a1.55,1.55,0,0,0,0-3.1H2.38A2.39,2.39,0,0,0,0,2.38v101.1a2.39,2.39,0,0,0,2.38,2.38h101.1a2.39,2.39,0,0,0,2.38-2.38V99.24A1.56,1.56,0,0,0,104.31,97.69Z"/><path class="cls-1" d="M22.33,87.35A2.39,2.39,0,0,0,20,89.73v6.62a2.39,2.39,0,0,0,2.38,2.38H33.91a2.39,2.39,0,0,0,2.38-2.38V89.73a2.39,2.39,0,0,0-2.38-2.38Zm10.85,8.27H23.05V90.46H33.18Z"/><path class="cls-1" d="M47.14,87.35a2.39,2.39,0,0,0-2.38,2.38v6.62a2.39,2.39,0,0,0,2.38,2.38H58.72a2.39,2.39,0,0,0,2.38-2.38V89.73a2.39,2.39,0,0,0-2.38-2.38ZM58,95.62H47.86V90.46H58Z"/><path class="cls-1" d="M72,87.35a2.39,2.39,0,0,0-2.38,2.38v6.62A2.39,2.39,0,0,0,72,98.73H83.53a2.39,2.39,0,0,0,2.38-2.38V89.73a2.39,2.39,0,0,0-2.38-2.38Zm10.86,8.27H72.67V90.46H82.81Z"/></svg>