<svg id="Layer_1" data-name="Layer 1" xmlns="http://www.w3.org/2000/svg" viewBox="0 0 172.49 109.85"><defs><style>.cls-1{fill:#fff;}</style></defs><title>meat</title><path class="cls-1" d="M25.53,81.85c3.92,0,7.41-2.36,9.55-6.49a22.15,22.15,0,0,0,2.25-10c0-9.58-5-16.52-11.8-16.52-3.93,0-7.41,2.36-9.56,6.48a23.5,23.5,0,0,0,0,20.07C18.12,79.49,21.6,81.85,25.53,81.85Zm-6.63-25c1.55-3,4-4.71,6.63-4.71,4.93,0,8.5,5.56,8.5,13.23a18.9,18.9,0,0,1-1.87,8.52c-1.56,3-4,4.71-6.63,4.71s-5.08-1.72-6.63-4.71A18.77,18.77,0,0,1,17,65.33,18.74,18.74,0,0,1,18.9,56.81Z"/><path class="cls-1" d="M25.53,76.8c3.84,0,6.75-4.93,6.75-11.47s-2.91-11.47-6.75-11.47-6.76,4.93-6.76,11.47S21.68,76.8,25.53,76.8Zm0-19.65c1.41,0,3.45,3.18,3.45,8.18s-2,8.18-3.45,8.18-3.46-3.19-3.46-8.18S24.12,57.15,25.53,57.15Z"/><path class="cls-1" d="M109.24,96h-.77V83.17a1.65,1.65,0,0,0-1-1.51L94.23,75.77A94.89,94.89,0,0,0,78.35,52.63a78.23,78.23,0,0,0-21-16.35,65.31,65.31,0,0,0-30.51-7.46A25.55,25.55,0,0,0,8.62,36.35,1.65,1.65,0,0,0,11,38.68,22.4,22.4,0,0,1,49.19,54.51V73.62a22.4,22.4,0,0,1-44.8,0V54.51A22.48,22.48,0,0,1,7,44.08a1.64,1.64,0,1,0-2.91-1.53,25.75,25.75,0,0,0-2.95,12V73.62A25.69,25.69,0,0,0,14.22,96H1.65A1.65,1.65,0,0,0,0,97.66a12.21,12.21,0,0,0,12.19,12.19H98.7a12.2,12.2,0,0,0,12.18-12.19A1.64,1.64,0,0,0,109.24,96Zm-4.06,0H94.64V79.55l10.54,4.69ZM98.7,106.55H12.19a8.9,8.9,0,0,1-8.74-7.24h80.1a1.65,1.65,0,0,0,0-3.3H39.36A25.71,25.71,0,0,0,52.48,73.62V54.51A25.68,25.68,0,0,0,42.28,34a62.09,62.09,0,0,1,11.1,4c9.24,5.47,9.24,25.67,9.24,33.29a1.65,1.65,0,1,0,3.3,0c0-6.61,0-19.79-4.45-28.76A78,78,0,0,1,75.24,54.13c3.92,4.63,3.29,18.26,2.72,23.14A1.65,1.65,0,0,0,79.4,79.1h.2a1.65,1.65,0,0,0,1.63-1.46,81.72,81.72,0,0,0,.43-10.16A50.86,50.86,0,0,0,81.13,61,89.93,89.93,0,0,1,91.34,77.38V96h-1.2a1.65,1.65,0,1,0,0,3.3h17.3A8.91,8.91,0,0,1,98.7,106.55Z"/><path class="cls-1" d="M66.89,26.54a1.65,1.65,0,1,0,3.29,0,6.1,6.1,0,0,1,.91-3.38,9.37,9.37,0,0,0,1.28-4.92,9.43,9.43,0,0,0-1.28-4.92A6,6,0,0,1,70.18,10a6.05,6.05,0,0,1,.91-3.38,9.43,9.43,0,0,0,1.28-4.92,1.65,1.65,0,1,0-3.29,0A6.1,6.1,0,0,1,68.17,5,9.37,9.37,0,0,0,66.89,10a9.36,9.36,0,0,0,1.28,4.91,6.1,6.1,0,0,1,.91,3.38,6.05,6.05,0,0,1-.91,3.38A9.43,9.43,0,0,0,66.89,26.54Z"/><path class="cls-1" d="M56.73,26.54a1.65,1.65,0,1,0,3.3,0,6.19,6.19,0,0,1,.9-3.38,9.27,9.27,0,0,0,1.29-4.92,9.33,9.33,0,0,0-1.29-4.92A6.13,6.13,0,0,1,60,10a6.14,6.14,0,0,1,.9-3.38,9.33,9.33,0,0,0,1.29-4.92,1.65,1.65,0,1,0-3.29,0A6.1,6.1,0,0,1,58,5,9.36,9.36,0,0,0,56.73,10,9.35,9.35,0,0,0,58,14.86a6.1,6.1,0,0,1,.91,3.38A6.05,6.05,0,0,1,58,21.62,9.42,9.42,0,0,0,56.73,26.54Z"/><path class="cls-1" d="M46.58,26.54a1.65,1.65,0,1,0,3.29,0,6.1,6.1,0,0,1,.91-3.38,9.36,9.36,0,0,0,1.29-4.92,9.42,9.42,0,0,0-1.29-4.92A6,6,0,0,1,49.87,10a6.05,6.05,0,0,1,.91-3.38,9.42,9.42,0,0,0,1.29-4.92,1.65,1.65,0,0,0-3.3,0A6.19,6.19,0,0,1,47.87,5,9.27,9.27,0,0,0,46.58,10a9.26,9.26,0,0,0,1.29,4.91,6.19,6.19,0,0,1,.9,3.38,6.14,6.14,0,0,1-.9,3.38A9.33,9.33,0,0,0,46.58,26.54Z"/><path class="cls-1" d="M167,76.61c1.35-5,1.4-11.11.14-18.08-2.43-13.41-9-26.49-11.66-31.48-7-13-25.21-16.73-40.61-8.42L103,25c-15.4,8.31-22.25,25.61-15.26,38.56,3.23,6,7.87,9.26,12.79,12.74,5.08,3.59,10.34,7.31,14.19,14.45,5.08,9.41,18.31,12.15,29.5,6.12l11.83-6.39A21.58,21.58,0,0,0,167,76.61ZM137.38,91a1.44,1.44,0,0,0,1,2,22.58,22.58,0,0,0,4.95.61l-.66.35c-9.32,5-20.34,2.74-24.57-5.09s-9.7-11.63-15.05-15.42c-4.64-3.28-9-6.37-11.93-11.77-5.9-10.94-.58-25.4,11.85-33-6.49,8.66-8.19,19.56-3.4,28.43,3.22,6,7.86,9.25,12.78,12.73,5.09,3.6,10.35,7.32,14.2,14.46a13.56,13.56,0,0,0,1,1.54,1.84,1.84,0,0,0,2.53.29,1.72,1.72,0,0,0,.69-2.37c-.28-.41-.55-.85-.79-1.29-4.16-7.71-9.69-11.62-15-15.41-4.63-3.28-9-6.38-11.93-11.78-6.14-11.38-.13-26.58,13.41-33.89s29.54-4,35.68,7.4c2.63,4.89,9,17.65,11.38,30.67,2.55,14.08-.45,23.54-8.92,28.11a21.14,21.14,0,0,1-14.71,2.14A2.2,2.2,0,0,0,137.38,91Z"/><path class="cls-1" d="M135.67,90.43a1.51,1.51,0,0,0-.21-2.33l0,0a2.1,2.1,0,0,0-2.61.59,1.61,1.61,0,0,0-.25,1.78,1.36,1.36,0,0,0,.51.53A2.09,2.09,0,0,0,135.67,90.43Z"/><path class="cls-1" d="M153.74,41.23l0-.07a1.73,1.73,0,0,0-2.38-.7,1.85,1.85,0,0,0-1.12,2.29l0,.08a.37.37,0,0,0,.05.11,1.76,1.76,0,0,0,2.32.58A1.85,1.85,0,0,0,153.74,41.23Z"/><path class="cls-1" d="M157.07,81.45c2.56-3.2,3.73-7.89,3.48-13.94a60.48,60.48,0,0,0-2.16-13c-.53-1.94-1.15-3.93-1.83-5.93a1.69,1.69,0,0,0-2.31-.83A1.9,1.9,0,0,0,153,50c.67,1.95,1.27,3.89,1.78,5.76,3,11,2.78,19.75-.6,24A8.57,8.57,0,0,1,151.45,82c-5.58,3-12.19,1.65-14.73-3a42.24,42.24,0,0,0-10.43-12.58c-1.92-1.6-4-3.06-5.94-4.46-1.31-.93-2.67-1.89-4-2.88a22.49,22.49,0,0,1-6.65-7.27c-4.44-8.25-.09-19.25,9.71-24.54s21.39-2.89,25.84,5.36c.87,1.6,1.71,3.26,2.51,4.91l.4.84a1.76,1.76,0,0,0,2.42.61,1.82,1.82,0,0,0,1-2.31c-.13-.29-.27-.58-.41-.86-.82-1.69-1.68-3.38-2.57-5-5.29-9.81-19.09-12.67-30.76-6.38s-16.85,19.4-11.55,29.21a25.07,25.07,0,0,0,7.41,8.17c1.33,1,2.71,2,4,2.94,1.93,1.37,3.93,2.79,5.77,4.32a39.75,39.75,0,0,1,9.76,11.76c3.38,6.27,12.2,8.1,19.65,4.08A13,13,0,0,0,157.07,81.45Z"/><path class="cls-1" d="M142.68,35.7c-2.15-4-7.39-5.34-11.68-3s-6,7.43-3.89,11.41,7.39,5.34,11.68,3S144.82,39.68,142.68,35.7ZM130.5,42.27a5,5,0,1,1,6.75,2A5,5,0,0,1,130.5,42.27Z"/></svg>