<svg id="Layer_1" data-name="Layer 1" xmlns="http://www.w3.org/2000/svg" viewBox="0 0 83 98.4"><defs><style>.cls-1{fill:#fff;}</style></defs><title>baby food</title><path class="cls-1" d="M54.4,38.21l-1.57-1.57a3.68,3.68,0,0,0,2.34-3.42v-5a3.67,3.67,0,0,0-3.66-3.67h-1A13.75,13.75,0,0,0,44,17.31a1.33,1.33,0,0,1-.5-1.73,6.17,6.17,0,0,0-9.8-7,6.16,6.16,0,0,0-2.07,4.61,6,6,0,0,0,.49,2.41,1.29,1.29,0,0,1-.55,1.68A13.74,13.74,0,0,0,25,24.55H24a3.67,3.67,0,0,0-3.67,3.67v5a3.68,3.68,0,0,0,2.34,3.42l-1.57,1.57a11.08,11.08,0,0,0-3.27,7.89V78.18a8.68,8.68,0,0,0,8.66,8.67H49a8.67,8.67,0,0,0,8.66-8.67V46.1A11.08,11.08,0,0,0,54.4,38.21ZM32.61,19.4a3.6,3.6,0,0,0,1.63-4.68,3.78,3.78,0,0,1-.3-1.49,3.83,3.83,0,0,1,1.29-2.86,3.77,3.77,0,0,1,3-.93,3.81,3.81,0,0,1,3.06,5.25,3.63,3.63,0,0,0,1.6,4.7,11.39,11.39,0,0,1,5,5.16H27.58A11.49,11.49,0,0,1,32.61,19.4ZM22.7,28.22A1.33,1.33,0,0,1,24,26.89H51.51a1.33,1.33,0,0,1,1.32,1.33v5a1.33,1.33,0,0,1-1.32,1.33H24a1.33,1.33,0,0,1-1.33-1.33v-5Zm32.63,50A6.34,6.34,0,0,1,49,84.51H26.52a6.34,6.34,0,0,1-6.32-6.33V74.36h5.08a1.17,1.17,0,0,0,0-2.34H20.2V68.11h2.58a1.17,1.17,0,0,0,0-2.34H20.2v-3.9h5.08a1.17,1.17,0,1,0,0-2.34H20.2V55.62h2.58a1.17,1.17,0,1,0,0-2.34H20.2v-3.9h5.08a1.17,1.17,0,0,0,0-2.34H20.2V46.1a8.79,8.79,0,0,1,2.58-6.24l3-3h24l3,3a8.79,8.79,0,0,1,2.58,6.24V78.18Z"/><path class="cls-1" d="M51.51,49.53a1.18,1.18,0,0,0-1.18,1.18V66.94a1.18,1.18,0,0,0,2.35,0V50.71A1.18,1.18,0,0,0,51.51,49.53Z"/><path class="cls-1" d="M49.21,41.74a1.19,1.19,0,0,0,0,1.66,3.76,3.76,0,0,1,1.12,2.7,1.18,1.18,0,0,0,2.35,0,6.09,6.09,0,0,0-1.81-4.36A1.17,1.17,0,0,0,49.21,41.74Z"/><path class="cls-1" d="M47.76,31.89H49a1.17,1.17,0,1,0,0-2.34H47.76a1.17,1.17,0,1,0,0,2.34Z"/><path class="cls-1" d="M34,31.89h8.74a1.17,1.17,0,1,0,0-2.34H34a1.17,1.17,0,0,0,0,2.34Z"/></svg>