<svg id="Layer_1" data-name="Layer 1" xmlns="http://www.w3.org/2000/svg" viewBox="0 0 137.44 99.42"><defs><style>.cls-1{fill:#fff;}</style></defs><title>deli</title><path class="cls-1" d="M51.64,30.19l-3.79-7.41a1.36,1.36,0,0,0-.93-.71h0L26.76,18,21.71,8.14a1.34,1.34,0,1,0-2.39,1.22l5.05,9.88L15.88,38h0a1.35,1.35,0,0,0,0,1.16l3.79,7.41a1.35,1.35,0,0,0,1.81.59l8.76-4.49L24.64,55.06h0a1.35,1.35,0,0,0,0,1.16l3.8,7.41a1.34,1.34,0,0,0,1.81.58L39,59.74,33.39,72.16h0a1.35,1.35,0,0,0,0,1.16l3.79,7.41a1.34,1.34,0,0,0,1.81.58l13.57-6.95,3.32,6.48a1.34,1.34,0,1,0,2.39-1.22L55,73.15l13.57-7a1.36,1.36,0,0,0,.59-1.81L65.35,57a1.35,1.35,0,0,0-.92-.7h0l-13.37-2.7,8.76-4.48a1.34,1.34,0,0,0,.58-1.81L56.6,39.88a1.32,1.32,0,0,0-.92-.7h0l-13.38-2.7L51.05,32A1.35,1.35,0,0,0,51.64,30.19ZM18.92,39.1,46.06,25.2l.67,1.31L19.59,40.41Zm7-16.8,2.31,4.51a1.34,1.34,0,0,0,2.39-1.23l-2.31-4.51L42.61,24,19.92,35.56Zm1.73,33.9L54.82,42.3l.67,1.31L28.34,57.51Zm8.76,17.1L63.57,59.41l.67,1.31L37.1,74.61Zm2.56,5L38.32,77l27.15-13.9.67,1.31ZM60.12,58.15,37.43,69.77l5.44-12,1-.5L46.1,61.7a1.35,1.35,0,0,0,2.4-1.23l-2.27-4.42,1-.5ZM30.24,61.21l-.67-1.31L56.71,46l.67,1.31ZM51.36,41.05,28.68,52.66l5.44-12,1-.49,2.08,4.08a1.36,1.36,0,0,0,1.81.59A1.34,1.34,0,0,0,39.57,43l-2.09-4.09,1-.49ZM21.48,44.11l-.67-1.31L48,28.91l.67,1.3Z"/><path class="cls-1" d="M118.61,67.81a20.52,20.52,0,0,0-4.67-5.8,20.28,20.28,0,0,0-5.85-3.87,21.81,21.81,0,0,1,2.28-2.94,19.15,19.15,0,0,1,5.38-4.33,20.7,20.7,0,0,0,5.8-4.67.84.84,0,0,0,.23-.62.9.9,0,0,0-.29-.6l-9-8.16h0l-3.38-3.05a.9.9,0,0,0-.63-.22.87.87,0,0,0-.6.28,19,19,0,0,1-5.38,4.34,20.63,20.63,0,0,0-5.8,4.66,20.78,20.78,0,0,0-4.05,6.25,18.89,18.89,0,0,1-3.76,5.8,19,19,0,0,1-5.38,4.34,23.4,23.4,0,0,0-9.85,10.92,19,19,0,0,1-3.76,5.8.88.88,0,0,0-.22.62.86.86,0,0,0,.29.6l3.38,3h0L79,85.31h0l3.38,3.05a.89.89,0,0,0,.63.22.84.84,0,0,0,.59-.29,20.65,20.65,0,0,0,4.05-6.25,19.2,19.2,0,0,1,3.76-5.8,18.68,18.68,0,0,1,4.9-4,18.75,18.75,0,0,1,5.29,3.53,19.15,19.15,0,0,1,4.33,5.38,20.67,20.67,0,0,0,4.67,5.81.85.85,0,0,0,.62.22.86.86,0,0,0,.6-.29l3-3.38h0l8.17-9a.9.9,0,0,0,.22-.63.88.88,0,0,0-.29-.6A19.15,19.15,0,0,1,118.61,67.81Zm-43.42,3A18.84,18.84,0,0,1,78.94,65a19.16,19.16,0,0,1,5.39-4.33A20.66,20.66,0,0,0,90.13,56a20.86,20.86,0,0,0,4.05-6.25A18.93,18.93,0,0,1,97.93,44a19.16,19.16,0,0,1,5.39-4.33,20.25,20.25,0,0,0,5.21-4l2.1,1.89a18.73,18.73,0,0,1-4.8,3.7,20.66,20.66,0,0,0-5.8,4.67,20.86,20.86,0,0,0-4,6.25,18.93,18.93,0,0,1-3.75,5.8,19.16,19.16,0,0,1-5.39,4.33A23.52,23.52,0,0,0,77,73.18a18.61,18.61,0,0,1-3.18,5.15l-2.1-1.89A20.87,20.87,0,0,0,75.19,70.84Zm14.9,4.25a21,21,0,0,0-4,6.25,18.47,18.47,0,0,1-3.18,5.15l-2.1-1.89A20.32,20.32,0,0,0,84.24,79a18.43,18.43,0,0,1,2.67-4.52.88.88,0,0,0-.14-1.22.87.87,0,0,0-1.22.14,20.33,20.33,0,0,0-2.89,4.89,18.86,18.86,0,0,1-3.18,5.15l-4.39-4a20.08,20.08,0,0,0,3.48-5.6,21.82,21.82,0,0,1,9.14-10.13,20.89,20.89,0,0,0,5.8-4.67,20.65,20.65,0,0,0,4-6.25,18.89,18.89,0,0,1,3.76-5.8,19,19,0,0,1,5.38-4.33,20.39,20.39,0,0,0,5.21-4l4.39,3.95a18.45,18.45,0,0,1-4.8,3.7,23.52,23.52,0,0,0-9.85,10.92A19.13,19.13,0,0,1,97.9,63a19,19,0,0,1-5.39,4.33,20.21,20.21,0,0,0-4.57,3.38.87.87,0,0,0,0,1.22.81.81,0,0,0,.66.26.84.84,0,0,0,.56-.24,18.69,18.69,0,0,1,4.23-3.12,20.7,20.7,0,0,0,5.8-4.67,20.65,20.65,0,0,0,4-6.25,19.13,19.13,0,0,1,3.75-5.8,19,19,0,0,1,5.39-4.33,20.39,20.39,0,0,0,5.21-4l2.1,1.9a18.43,18.43,0,0,1-4.8,3.69A23.52,23.52,0,0,0,105,60.29a18.93,18.93,0,0,1-3.75,5.8c-.55.62-1.06,1.13-1.54,1.58l0,0a18.73,18.73,0,0,1-3.82,2.72A21,21,0,0,0,90.09,75.09Zm24,6.57a18.59,18.59,0,0,1-3.69-4.8,20.7,20.7,0,0,0-4.67-5.8,21.65,21.65,0,0,0-4-3l.8-.86a22.5,22.5,0,0,0,2.76-3.68,22.2,22.2,0,0,1,8.73,8.49,20.39,20.39,0,0,0,4,5.21Zm-3,3.38a18.73,18.73,0,0,1-3.7-4.8,20.77,20.77,0,0,0-4.66-5.8,21.22,21.22,0,0,0-4.66-3.3,18.51,18.51,0,0,0,2.38-1.78,19.54,19.54,0,0,1,4.17,3A19.16,19.16,0,0,1,109,77.73a20.31,20.31,0,0,0,4,5.21ZM119.26,76a18.5,18.5,0,0,1-3.7-4.8A23.87,23.87,0,0,0,106.14,62l.47-1c.21-.45.41-.89.63-1.35a21.7,21.7,0,0,1,9.88,9,20.25,20.25,0,0,0,4,5.21Z"/><path class="cls-1" d="M74.71,53a19.1,19.1,0,0,1,5.81,3.76c.33.3.65.6.94.89a.85.85,0,0,0,1.22,0,.86.86,0,0,0,0-1.22c-.32-.31-.65-.63-1-.95a21,21,0,0,0-6.26-4.05,18.75,18.75,0,0,1-5.15-3.18l1.9-2.1a20.32,20.32,0,0,0,5.6,3.48,19.13,19.13,0,0,1,5.8,3.75c.59.54,1.11,1,1.58,1.55a.86.86,0,0,0,.68.28.9.9,0,0,0,.55-.23.88.88,0,0,0,0-1.23c-.51-.54-1.06-1.08-1.69-1.65a20.65,20.65,0,0,0-6.25-4,18.47,18.47,0,0,1-5.15-3.18l4-4.39a20.08,20.08,0,0,0,5.6,3.48,19,19,0,0,1,5.8,3.76c.34.3.67.61,1,.91a.87.87,0,0,0,1.22-1.23c-.32-.32-.67-.64-1-1a20.86,20.86,0,0,0-6.25-4,18.61,18.61,0,0,1-5.15-3.18l1.89-2.1a20.47,20.47,0,0,0,5.6,3.48,18.93,18.93,0,0,1,5.8,3.75l.2.18A.87.87,0,0,0,93.1,43.2L92.89,43A20.65,20.65,0,0,0,86.64,39a19,19,0,0,1-5.8-3.76.88.88,0,0,0-.62-.22.86.86,0,0,0-.6.29l-3.05,3.38h0l-5.12,5.67h0l-3,3.38a.9.9,0,0,0-.22.63.87.87,0,0,0,.28.6A20.9,20.9,0,0,0,74.71,53Z"/></svg>