<svg id="Layer_1" data-name="Layer 1" xmlns="http://www.w3.org/2000/svg" viewBox="0 0 89.94 89.44"><defs><style>.cls-1{fill:#fff;}</style></defs><title>food_gen</title><path class="cls-1" d="M66.86,35.76l5.28-.34h0A12.44,12.44,0,0,0,81.45,30l4.17-6.12a24.73,24.73,0,0,0,4-18.15,5.58,5.58,0,0,0-5.24-4.64A24.72,24.72,0,0,0,66.81,7.2l-5.58,4.88A12.46,12.46,0,0,0,57,21.94v0l.3,5.28a7.48,7.48,0,0,1-2.07,5.58L11.57,77.65a6.35,6.35,0,0,0-1.7,4.7,7.3,7.3,0,0,0,7.39,7.09,5.63,5.63,0,0,0,.58,0,6.31,6.31,0,0,0,4.47-2.25L61.57,38.48A7.44,7.44,0,0,1,66.86,35.76Zm-7.39,1L20.22,85.46a3.69,3.69,0,0,1-2.6,1.27,4.61,4.61,0,0,1-5.05-4.49,3.64,3.64,0,0,1,.94-2.72L57.13,34.71A10.15,10.15,0,0,0,60,27.1l-.3-5.27A9.76,9.76,0,0,1,63,14.11l5.59-4.88A22.06,22.06,0,0,1,84.22,3.78a2.88,2.88,0,0,1,2.71,2.4A22.08,22.08,0,0,1,83.4,22.36l-4.18,6.13A9.76,9.76,0,0,1,72,32.73l-5.27.33A10.17,10.17,0,0,0,59.47,36.79Z"/><path class="cls-1" d="M87.45,77.31,58.2,50.66a1.35,1.35,0,0,0-1.82,2L85.63,79.29A3.72,3.72,0,0,1,86.74,82,4.62,4.62,0,0,1,82,86.74a3.69,3.69,0,0,1-2.66-1.1L53.23,57a1.35,1.35,0,1,0-2,1.81L77.31,87.46a6.37,6.37,0,0,0,4.6,2h.14a7.31,7.31,0,0,0,7.39-7.53A6.34,6.34,0,0,0,87.45,77.31Z"/><path class="cls-1" d="M16.27,35.5a12.44,12.44,0,0,0,8.16,3.3h0l5.3,0a7.42,7.42,0,0,1,5.44,2.4l2.33,2.56a1.34,1.34,0,0,0,1,.44,1.35,1.35,0,0,0,1-2.26L37.19,39.4a10.19,10.19,0,0,0-7.43-3.28H24.48a9.75,9.75,0,0,1-6.32-2.54L2.81,15.33a.47.47,0,0,1,0-.63.48.48,0,0,1,.66,0l14,14a3.55,3.55,0,0,0,5,0L24.11,27h0L27,24.11h0l1.64-1.64a3.55,3.55,0,0,0,0-5l-14-14a.47.47,0,0,1,.63-.69L33.57,18.16a9.75,9.75,0,0,1,2.54,6.32v5.29a10.18,10.18,0,0,0,3.28,7.42l2.5,2.28a1.35,1.35,0,1,0,1.82-2l-2.5-2.27a7.42,7.42,0,0,1-2.4-5.44l0-5.3v0a12.44,12.44,0,0,0-3.3-8.16l-.12-.12L17.07.75A3.14,3.14,0,0,0,12.8.93a3.15,3.15,0,0,0,0,4.47l14,14a.85.85,0,0,1,0,1.2l-.68.68L10.51,5.69A1.35,1.35,0,0,0,8.6,7.59L24.17,23.16l-1,1L7.59,8.6a1.35,1.35,0,0,0-1.9,1.91L21.25,26.08l-.68.68a.85.85,0,0,1-1.2,0l-14-14a3.15,3.15,0,0,0-4.47,0,3.14,3.14,0,0,0-.18,4.27l15.4,18.31Z"/></svg>