<svg id="Layer_1" data-name="Layer 1" xmlns="http://www.w3.org/2000/svg" viewBox="0 0 161 132.55"><defs><style>.cls-1{fill:#fff;}</style></defs><title>grains</title><path class="cls-1" d="M42.81,30.73h-5.1A12.09,12.09,0,0,0,27,37.21a12.09,12.09,0,0,0-2.34-3.12,1.36,1.36,0,1,0-1.88,2,9.27,9.27,0,0,1,2.86,6.72v3.75H21.93a9.33,9.33,0,0,1-9.32-9.32V33.45h3.74a9.13,9.13,0,0,1,3.72.78,1.36,1.36,0,0,0,1.09-2.5,12,12,0,0,0-4.81-1h-5.1a1.36,1.36,0,0,0-1.36,1.36V37.2a12,12,0,0,0,4.42,9.32H11.25a1.36,1.36,0,0,0-1.36,1.36V53a12,12,0,0,0,4.42,9.32H11.25a1.36,1.36,0,0,0-1.36,1.36v5.1a12,12,0,0,0,4.42,9.32H11.25a1.36,1.36,0,0,0-1.36,1.36v5.11a12.05,12.05,0,0,0,12,12h3.74V121a1.36,1.36,0,0,0,2.72,0V96.59h3.74a12.05,12.05,0,0,0,12-12V79.44a1.36,1.36,0,0,0-1.36-1.36H39.75a12,12,0,0,0,4.42-9.32v-5.1a1.36,1.36,0,0,0-1.36-1.36H39.75A12,12,0,0,0,44.17,53v-5.1a1.36,1.36,0,0,0-1.36-1.36H39.75a12,12,0,0,0,4.42-9.32V32.09A1.36,1.36,0,0,0,42.81,30.73ZM27,80.81h3.06A12.26,12.26,0,0,0,27,84.57,12.15,12.15,0,0,0,24,80.81ZM27,65h3.06A12.3,12.3,0,0,0,27,68.79,12.19,12.19,0,0,0,24,65Zm0-15.78h3.06A12.19,12.19,0,0,0,27,53,12.08,12.08,0,0,0,24,49.24ZM12.61,53V49.24h3.74a9.33,9.33,0,0,1,9.32,9.32V62.3H21.93A9.33,9.33,0,0,1,12.61,53Zm0,15.78V65h3.74a9.33,9.33,0,0,1,9.32,9.32v3.74H21.93A9.33,9.33,0,0,1,12.61,68.76Zm0,15.79V80.81h3.74a9.33,9.33,0,0,1,9.32,9.31v3.75H21.93A9.33,9.33,0,0,1,12.61,84.55Zm28.84,0a9.33,9.33,0,0,1-9.32,9.32H28.39V90.12a9.33,9.33,0,0,1,9.32-9.31h3.74Zm0-15.79a9.33,9.33,0,0,1-9.32,9.32H28.39V74.34A9.33,9.33,0,0,1,37.71,65h3.74Zm0-15.78a9.33,9.33,0,0,1-9.32,9.32H28.39V58.56a9.33,9.33,0,0,1,9.32-9.32h3.74Zm0-15.78a9.33,9.33,0,0,1-9.32,9.32H28.39V42.77a9.34,9.34,0,0,1,9.32-9.32h3.74Z"/><path class="cls-1" d="M79.46,18.55V13.44a1.36,1.36,0,0,0-1.37-1.36H73a12.05,12.05,0,0,0-10.68,6.49,12.05,12.05,0,0,0-10.68-6.49h-5.1a1.36,1.36,0,0,0-1.36,1.36v5.11a12,12,0,0,0,4.42,9.32H46.53a1.36,1.36,0,0,0-1.36,1.36v5.1a12,12,0,0,0,4.42,9.32H46.53A1.36,1.36,0,0,0,45.17,45v5.1a12.05,12.05,0,0,0,12,12H61V86.56a1.36,1.36,0,0,0,2.72,0V62.16h3.75a12.07,12.07,0,0,0,12-12V45a1.36,1.36,0,0,0-1.37-1.36H75a12.18,12.18,0,0,0,2.36-2.59,1.36,1.36,0,1,0-2.26-1.52,9.3,9.3,0,0,1-7.72,4.11H63.67V39.91A9.33,9.33,0,0,1,73,30.59h3.74v3.74a9.59,9.59,0,0,1-.1,1.42,1.36,1.36,0,1,0,2.69.41,12.42,12.42,0,0,0,.14-1.83v-5.1a1.36,1.36,0,0,0-1.37-1.36H75A12,12,0,0,0,79.46,18.55ZM73,14.8h3.74v3.75a9.33,9.33,0,0,1-9.31,9.32H63.67V24.12A9.34,9.34,0,0,1,73,14.8Zm-25.1,3.75V14.8h3.74A9.34,9.34,0,0,1,61,24.12v3.75H57.21A9.33,9.33,0,0,1,47.89,18.55Zm0,15.78V30.59h3.74A9.33,9.33,0,0,1,61,39.91v3.74H57.21A9.33,9.33,0,0,1,47.89,34.33Zm0,15.78V46.37h3.74A9.33,9.33,0,0,1,61,55.69v3.74H57.21A9.33,9.33,0,0,1,47.89,50.11Zm28.84,0a9.33,9.33,0,0,1-9.31,9.32H63.67V55.69A9.33,9.33,0,0,1,73,46.37h3.74ZM65.38,46.37a12.19,12.19,0,0,0-3.07,3.77,12.16,12.16,0,0,0-3.06-3.77Zm-3.07-12a12,12,0,0,0-3.06-3.77h6.13A12.08,12.08,0,0,0,62.31,34.36Z"/><path class="cls-1" d="M100.22,75.47a10.63,10.63,0,0,1-10-10,1.11,1.11,0,1,0-2.21.24,12.83,12.83,0,0,0,12,12h.13a1.11,1.11,0,0,0,.12-2.22Z"/><path class="cls-1" d="M86.93,59.31a10.32,10.32,0,0,0-6.7-2.47,1.12,1.12,0,0,0,0,2.23A8.06,8.06,0,0,1,85.48,61a1.11,1.11,0,0,0,.72.27,1.1,1.1,0,0,0,.85-.39A1.12,1.12,0,0,0,86.93,59.31Z"/><path class="cls-1" d="M112.18,86.7h-.05a1.11,1.11,0,0,0-1.24.91c-1.08,6.19-7,10.52-14.2,10.32a22.1,22.1,0,0,1-6.23-1.11A24.55,24.55,0,0,0,91.37,91a17.55,17.55,0,0,0-3.22-10.79,14,14,0,0,0-9.42-5.75,15.69,15.69,0,0,0-2-.14,14.79,14.79,0,0,0-7.42,2A22.85,22.85,0,0,1,67.77,69c-.21-7.37,4.3-13.37,10.73-14.27a12.61,12.61,0,0,1,9.43,2.52,11.62,11.62,0,0,1,4.5,8,8.41,8.41,0,0,0,8,8,12.09,12.09,0,0,1,10.46,10.26,1.12,1.12,0,0,0,1.23.93h0a1.12,1.12,0,0,0,.93-1.28A14.33,14.33,0,0,0,100.7,71.05,6.2,6.2,0,0,1,94.64,65a13.87,13.87,0,0,0-5.34-9.48,14.82,14.82,0,0,0-11.11-3,14,14,0,0,0-9.43,5.75,17.6,17.6,0,0,0-3.21,10.78,25.4,25.4,0,0,0,1.83,8.56l-.28.23a13.9,13.9,0,0,0-4.83,9.06A6.2,6.2,0,0,1,56.21,93a13.84,13.84,0,0,0-9.48,5.35,14.79,14.79,0,0,0-3,11.1,13.78,13.78,0,0,0,5.55,9.28,17.47,17.47,0,0,0,10.45,3.37h.54c7.09-.2,14.5-3.82,20.87-10.19a36.45,36.45,0,0,0,8.6-12.95,24.78,24.78,0,0,0,6.85,1.22h.55c8,0,14.67-5,15.91-12.16A1.11,1.11,0,0,0,112.18,86.7ZM46,109.12a12.66,12.66,0,0,1,2.52-9.43,11.64,11.64,0,0,1,8-4.5,8.43,8.43,0,0,0,8-8A12.09,12.09,0,0,1,76.68,76.55a12.61,12.61,0,0,1,1.74.12c6.42.89,10.94,6.89,10.72,14.26-.18,6.53-3.57,13.41-9.54,19.37s-12.85,9.36-19.37,9.55h-.47C52.63,119.85,46.83,115.34,46,109.12Z"/><path class="cls-1" d="M68.91,87.65a1.13,1.13,0,0,0-1-1.23,1.1,1.1,0,0,0-1.22,1,10.63,10.63,0,0,1-10,10,1.11,1.11,0,0,0,.12,2.22h.12a12.83,12.83,0,0,0,12-12Z"/><path class="cls-1" d="M70.71,83.19a1.11,1.11,0,0,0,.73-.26A8,8,0,0,1,76.68,81a1.11,1.11,0,1,0,0-2.22A10.31,10.31,0,0,0,70,81.24a1.11,1.11,0,0,0,.72,2Z"/><ellipse class="cls-1" cx="144.75" cy="58.99" rx="1.41" ry="1.35"/><ellipse class="cls-1" cx="138.49" cy="49.88" rx="1.41" ry="1.35"/><ellipse class="cls-1" cx="127.75" cy="58.27" rx="1.41" ry="1.35"/><path class="cls-1" d="M158.2,28.78l1.36-1.3a4.52,4.52,0,0,0,0-6.62,5.07,5.07,0,0,0-6.93,0l-1.36,1.3L150.06,21l1.36-1.3a4.51,4.51,0,0,0,0-6.61,5.06,5.06,0,0,0-6.93,0l-1.36,1.3-1.21-1.16,1.36-1.3a4.54,4.54,0,0,0,0-6.62,5.08,5.08,0,0,0-6.93,0L135,6.61l-.43-.41a4.4,4.4,0,0,0-6,0,4,4,0,0,0-1.24,2.64,4.42,4.42,0,0,0-2.32.82,18.67,18.67,0,0,0-18.19,4.2L100.44,20a5.19,5.19,0,0,1-7.1,0,4.64,4.64,0,0,1,0-6.78l6.55-6.25a3.94,3.94,0,0,0,0-5.73,4.38,4.38,0,0,0-6,0L87.34,7.44a12.5,12.5,0,0,0,0,18.24,14,14,0,0,0,19.1,0l6.38-6.08A9.63,9.63,0,0,1,119.33,17a3.93,3.93,0,0,0,1.23,2.63L121,20,110.25,30.24a7.8,7.8,0,0,0,0,11.39,1.2,1.2,0,0,1,.38.87,1.24,1.24,0,0,1-.38.88L92.33,60.49a17.38,17.38,0,0,0,.42,3.41l19.5-18.61a3.81,3.81,0,0,0,0-5.57,5.18,5.18,0,0,1,0-7.57L123,21.9l2.93,2.79-1.56,1.49a3.4,3.4,0,0,0,0,5,3.81,3.81,0,0,0,5.21,0l1.56-1.48,2.93,2.8L132.5,34a3.41,3.41,0,0,0,0,5,3.81,3.81,0,0,0,5.21,0l1.56-1.49,2.93,2.8L140,42.33a3.55,3.55,0,0,0-1.16-.6h0a3.88,3.88,0,0,0-.77-.14,3.59,3.59,0,0,0-1.58.22,3.48,3.48,0,0,0-1,.58,3.67,3.67,0,0,0-2.66-.43,3.48,3.48,0,0,0-.75.25h0a3.68,3.68,0,0,0-.63.39,3.14,3.14,0,0,0-.78.84,3.35,3.35,0,0,0-1.17-.11,4.07,4.07,0,0,0-.75.13,3.33,3.33,0,0,0-.74.31,3.37,3.37,0,0,0-1.65,2l-.38,0h0a3.55,3.55,0,0,0-.71.19,3.45,3.45,0,0,0-1.32.84,3.33,3.33,0,0,0-.79,1.29l0,.05a3.34,3.34,0,0,0-.14,1.08,3.19,3.19,0,0,0-.75.35,4.28,4.28,0,0,0-4.48.85L96.36,70.86a25.7,25.7,0,0,0,1.94,2L119.7,52.4a1.29,1.29,0,0,1,.9-.36,3.71,3.71,0,0,0,0,.47,3.38,3.38,0,0,0,.2,1.06,3.6,3.6,0,0,0-.79.77l0,0a3.23,3.23,0,0,0-.57,1.39v0a3.25,3.25,0,0,0,.65,2.49,3.21,3.21,0,0,0-.65,2.48v0a3.24,3.24,0,0,0,.57,1.38l0,0a3.6,3.6,0,0,0,.79.77,3.39,3.39,0,0,0-.2,1.07,3.29,3.29,0,0,0,.34,1.47.08.08,0,0,0,0,0,3.43,3.43,0,0,0,2,1.7,3.5,3.5,0,0,0,.14,1.07.14.14,0,0,0,0,.06,3.33,3.33,0,0,0,.79,1.29,3.45,3.45,0,0,0,1.32.84,3.55,3.55,0,0,0,.71.19h0l.38,0a3.37,3.37,0,0,0,1.65,2,3.29,3.29,0,0,0,.76.31,3.6,3.6,0,0,0,.73.13,3.35,3.35,0,0,0,1.17-.11,3.29,3.29,0,0,0,.78.84,3.68,3.68,0,0,0,.63.39h0a3.48,3.48,0,0,0,.75.25,3.66,3.66,0,0,0,2.66-.43,3.62,3.62,0,0,0,1,.58,3.56,3.56,0,0,0,1.27.23H138a3.82,3.82,0,0,0,.79-.14h0a3.48,3.48,0,0,0,.69-.29,3.4,3.4,0,0,0,.9-.71,3.72,3.72,0,0,0,2.69,0,3.54,3.54,0,0,0,1.3-.85,3.4,3.4,0,0,0,.64-.94,3.74,3.74,0,0,0,1.16-.06,3.91,3.91,0,0,0,.73-.24h0a3.86,3.86,0,0,0,.65-.39,3.45,3.45,0,0,0,1-1.17v0a3,3,0,0,0,.31-1.06,3.48,3.48,0,0,0,2.25-1.4v0a3.33,3.33,0,0,0,.58-1.39v0a3.25,3.25,0,0,0,0-1.08,3.33,3.33,0,0,0,.9-.65l0,0a3.41,3.41,0,0,0,.79-1.29v0a3.15,3.15,0,0,0-.26-2.55,3.31,3.31,0,0,0,.67-.89,3.17,3.17,0,0,0,.36-1.45.09.09,0,0,0,0-.07,3.17,3.17,0,0,0-.36-1.45h0a3.62,3.62,0,0,0-.66-.88,3.19,3.19,0,0,0,.25-2.55v0a3.41,3.41,0,0,0-.79-1.29l0,0a3.56,3.56,0,0,0-.9-.65,3.25,3.25,0,0,0,0-1.08v0a3.33,3.33,0,0,0-.58-1.39v0a3.45,3.45,0,0,0-2.25-1.4,3,3,0,0,0-.31-1.06v0a3.55,3.55,0,0,0-1-1.17,4.21,4.21,0,0,0-.64-.39h0a4.34,4.34,0,0,0-.72-.24,3.82,3.82,0,0,0-1.17-.06,3.4,3.4,0,0,0-.64-.94,3.57,3.57,0,0,0-.94-.69l.72-.69.43.41a4.38,4.38,0,0,0,6,0,3.93,3.93,0,0,0,1.24-2.64,4.33,4.33,0,0,0,2.76-1.18,3.93,3.93,0,0,0,1.24-2.64,4.33,4.33,0,0,0,2.76-1.18,3.91,3.91,0,0,0,0-5.73ZM146.49,15a2.14,2.14,0,0,1,2.93,0,1.91,1.91,0,0,1,0,2.79l-1.36,1.3-2.93-2.79Zm-8.14-7.78a2.15,2.15,0,0,1,2.93,0,1.92,1.92,0,0,1,0,2.8l-1.36,1.3L137,8.52Zm-17.79,6.63a4.86,4.86,0,0,0-.38.41l-.66,0a12.55,12.55,0,0,0-8.7,3.44l-6.38,6.09a11.05,11.05,0,0,1-15.1,0,9.89,9.89,0,0,1,0-14.42L95.89,3.1a1.45,1.45,0,0,1,2,0,1.28,1.28,0,0,1,.41.95,1.32,1.32,0,0,1-.41,1l-6.55,6.25a7.26,7.26,0,0,0,0,10.6,8.13,8.13,0,0,0,11.1,0l6.37-6.09A15.7,15.7,0,0,1,123.42,12a4.22,4.22,0,0,0-.1.62A4.29,4.29,0,0,0,120.56,13.85Zm7,15.39a.88.88,0,0,1-1.21,0,.79.79,0,0,1,0-1.15l1.56-1.49,1.21,1.16ZM135.71,37a.88.88,0,0,1-1.21,0,.8.8,0,0,1,0-1.16l1.56-1.48,1.21,1.15Zm8.15,9.92a2,2,0,0,0,1.45.23h0a.57.57,0,0,1,.26,0l.15.05.15.09,0,0a.56.56,0,0,1,.17.22.66.66,0,0,1,.06.25,1.78,1.78,0,0,0,.54,1.3l.35.36a2,2,0,0,0,1.33.63h0a.67.67,0,0,1,.48.28.72.72,0,0,1,.12.27.71.71,0,0,1,0,.26,1.76,1.76,0,0,0,.12,1.42c.07.15.15.29.22.44a1.9,1.9,0,0,0,1.09,1h0a.51.51,0,0,1,.23.15.76.76,0,0,1,.15.25.67.67,0,0,1-.08.54,1.79,1.79,0,0,0-.33,1.38c0,.16.06.33.08.49a1.86,1.86,0,0,0,.73,1.23.58.58,0,0,1,.18.22.55.55,0,0,1,.06.28.87.87,0,0,1,0,.27,1.06,1.06,0,0,1-.18.22,1.84,1.84,0,0,0-.74,1.23c0,.16-.05.33-.08.49a1.83,1.83,0,0,0,.33,1.39.64.64,0,0,1,.08.53.76.76,0,0,1-.15.25.74.74,0,0,1-.23.16,1.9,1.9,0,0,0-1.09,1c-.07.15-.15.29-.22.44a1.77,1.77,0,0,0-.12,1.42.71.71,0,0,1,0,.26.72.72,0,0,1-.12.27.64.64,0,0,1-.49.28,2,2,0,0,0-1.34.63l-.35.36a1.8,1.8,0,0,0-.54,1.3.66.66,0,0,1-.06.25.56.56,0,0,1-.17.22l0,0a.6.6,0,0,1-.15.09.5.5,0,0,1-.16.05.53.53,0,0,1-.25,0h0a2.09,2.09,0,0,0-1.45.23l-.44.24a1.9,1.9,0,0,0-.93,1.1.58.58,0,0,1-.12.21l0,0a.67.67,0,0,1-.24.16h0a.68.68,0,0,1-.56,0h0a2,2,0,0,0-1.45-.19l-.5.1a2,2,0,0,0-1.22.77l0,0a.46.46,0,0,1-.17.17h0a.94.94,0,0,1-.15.06l-.18,0a.63.63,0,0,1-.29-.05h0a.52.52,0,0,1-.21-.15,2,2,0,0,0-1.33-.59l-.52,0h-.18a2,2,0,0,0-1.22.41h0a.67.67,0,0,1-.54.11l-.16,0a.42.42,0,0,1-.14-.09h0a.55.55,0,0,1-.15-.2,2,2,0,0,0-1.09-.94l-.48-.18a2,2,0,0,0-1.47,0,.64.64,0,0,1-.25,0h0l-.17,0-.15-.07A.6.6,0,0,1,129,70a1.85,1.85,0,0,0-.74-1.2l-.41-.31a2,2,0,0,0-1.42-.43h-.13l-.14,0h0a1,1,0,0,1-.25-.17,1,1,0,0,1-.14-.25.59.59,0,0,1,0-.26,1.77,1.77,0,0,0-.34-1.37c-.1-.14-.2-.27-.29-.41a2,2,0,0,0-1.23-.81.65.65,0,0,1-.43-.33.73.73,0,0,1-.08-.28.8.8,0,0,1,0-.26v0a1.78,1.78,0,0,0,.11-1.41c-.06-.16-.11-.32-.16-.47a1.85,1.85,0,0,0-.91-1.11,1.2,1.2,0,0,1-.21-.19.78.78,0,0,1-.11-.28.62.62,0,0,1,.16-.51h0a1.86,1.86,0,0,0,.54-1.35c0-.07,0-.15,0-.22s0-.15,0-.23a1.87,1.87,0,0,0-.54-1.35h0a.62.62,0,0,1-.16-.51.78.78,0,0,1,.11-.28.81.81,0,0,1,.2-.18,1.87,1.87,0,0,0,.92-1.11c0-.16.1-.32.16-.47a1.83,1.83,0,0,0-.11-1.43.62.62,0,0,1-.06-.26.66.66,0,0,1,.08-.28.64.64,0,0,1,.43-.34,1.93,1.93,0,0,0,1.23-.81l.29-.4a1.78,1.78,0,0,0,.34-1.37.62.62,0,0,1,0-.27,1,1,0,0,1,.14-.25.85.85,0,0,1,.25-.17h0l.14,0a.36.36,0,0,1,.15,0,2.05,2.05,0,0,0,1.4-.43l.4-.31a1.87,1.87,0,0,0,.75-1.2v0a.62.62,0,0,1,.32-.44l.14-.07.18,0h0a.68.68,0,0,1,.25,0,2,2,0,0,0,1.47,0l.48-.18a2,2,0,0,0,1.09-.93v0a.6.6,0,0,1,.15-.19h0a.67.67,0,0,1,.14-.09l.16-.05a.67.67,0,0,1,.54.11l0,0a2.11,2.11,0,0,0,1.4.39l.5,0a2.05,2.05,0,0,0,1.35-.6.49.49,0,0,1,.2-.14h0a.67.67,0,0,1,.31,0l.16,0,.15.06h0a.69.69,0,0,1,.17.17h0a2,2,0,0,0,1.22.78l.5.11a2.08,2.08,0,0,0,1.45-.2h0a.68.68,0,0,1,.56,0h0a.67.67,0,0,1,.24.16l0,0a.75.75,0,0,1,.12.22,1.9,1.9,0,0,0,.92,1.09Zm4.77-6.29a1.46,1.46,0,0,1-1,.39,1.44,1.44,0,0,1-1-.39l-24.07-23a1.31,1.31,0,0,1,0-1.91,1.41,1.41,0,0,1,1-.4,1.42,1.42,0,0,1,1,.4l24.07,23a1.28,1.28,0,0,1,.41.95A1.32,1.32,0,0,1,148.63,40.65Zm4-3.82a1.48,1.48,0,0,1-2,0l-24.07-23a1.33,1.33,0,0,1,0-1.92,1.48,1.48,0,0,1,2,0l24.07,23a1.28,1.28,0,0,1,.41.95A1.32,1.32,0,0,1,152.63,36.83Zm4-3.82a1.48,1.48,0,0,1-2,0L130.56,10a1.28,1.28,0,0,1-.41-.95,1.32,1.32,0,0,1,.41-1,1.48,1.48,0,0,1,2,0l24.07,23a1.29,1.29,0,0,1,.42.95A1.33,1.33,0,0,1,156.63,33Zm.93-7.44-1.36,1.3-2.93-2.8,1.36-1.3a2.16,2.16,0,0,1,1.47-.58,2.12,2.12,0,0,1,1.46.58A1.92,1.92,0,0,1,157.56,25.57Z"/><ellipse class="cls-1" cx="147.58" cy="54.54" rx="1.41" ry="1.35"/><ellipse class="cls-1" cx="137.08" cy="57.64" rx="1.41" ry="1.35"/><ellipse class="cls-1" cx="134.25" cy="66.46" rx="1.41" ry="1.35"/></svg>