<svg id="Layer_1" data-name="Layer 1" xmlns="http://www.w3.org/2000/svg" viewBox="0 0 110.88 111.72"><defs><style>.cls-1{fill:#fff;}</style></defs><title>Artboard 7</title><path class="cls-1" d="M20.91,75.85a7.06,7.06,0,0,0-10,0,7.06,7.06,0,1,0,10,0ZM17.58,82.5a2.34,2.34,0,0,1-3.32,0,2.35,2.35,0,0,1,0-3.33,2.37,2.37,0,0,1,3.32,0h0a2.35,2.35,0,0,1,0,3.33Z"/><path class="cls-1" d="M110.77,32.18a5.42,5.42,0,0,0-3.08-3.88c-1.06-.47-1.45-1.55-2-3.27s-1.52-5-5.22-4.73a3.77,3.77,0,0,1-3.11-1,3.77,3.77,0,0,1-1-3.1,8.39,8.39,0,0,0-2.34-6.87A8.55,8.55,0,0,0,87.52,7c0-.15-.06-.32-.09-.46-.33-1.77-1-5.44-6.14-6.13a6.87,6.87,0,0,0-5.43.38A5.53,5.53,0,0,0,73.4,5.3L73.35,20h-24a49.35,49.35,0,0,0-10.87,1.24A39.92,39.92,0,0,0,32.17,8L31,6.36l-1.79.88c-.44.22-11,5.53-13.88,14.67A15.63,15.63,0,0,0,16,33.1,49.15,49.15,0,0,0,0,69.36v42.36H42A49.34,49.34,0,0,0,77.15,97.17c1.14-1.14,2.21-2.33,3.22-3.55,1,.08,2.11.14,3.26.14a39.44,39.44,0,0,0,23.45-7.7l1.61-1.16-.89-1.79c-.27-.54-6.31-12.46-16.61-14.35a48.18,48.18,0,0,0,.5-6.71V38.19l14.86.14.18,0a4.87,4.87,0,0,0,2.79-1.48h0A5.24,5.24,0,0,0,110.77,32.18Zm-91-2.31a10.67,10.67,0,0,1,0-6.52c1.67-5.26,7-9.14,9.74-10.88A35.23,35.23,0,0,1,34,22.5,48.85,48.85,0,0,0,27.84,25c-.48.23-1,.44-1.45.69-.65.35-1.29.74-1.93,1.11s-1.31.77-1.94,1.18-1.14.77-1.7,1.17C20.48,29.42,20.14,29.62,19.81,29.87Zm70.56,43.5c5.92,1.1,10.32,7,12.21,10.07A34.72,34.72,0,0,1,83.7,89.06a49,49,0,0,0,6.56-15.31C90.29,73.62,90.34,73.49,90.37,73.37Zm15.71-39.75L87,33.44V62.05a45.4,45.4,0,0,1-.74,8l-.06.33c-.13.71-.3,1.42-.46,2.12-.08.31-.15.61-.23.91a45.16,45.16,0,0,1-8.07,16.29l-.91,1.16c-.86,1-1.74,2-2.69,3A44.71,44.71,0,0,1,42,107H4.7V69.36A44.75,44.75,0,0,1,32.76,28l.1,0a43,43,0,0,1,4.49-1.51,44.41,44.41,0,0,1,12-1.69H78l.06-19.18a1.3,1.3,0,0,1,.23-.76,2.62,2.62,0,0,1,1.6.11L80.5,5c1.91.22,2,.76,2.31,2.37.25,1.27.89,4.64,4.82,4.29a3.8,3.8,0,0,1,3.11,1,3.79,3.79,0,0,1,1,3.11,8.4,8.4,0,0,0,2.34,6.87A8.49,8.49,0,0,0,100.73,25c.16.35.35,1,.49,1.4.58,1.92,1.47,4.82,4.57,6.2a.75.75,0,0,1,.38.53.56.56,0,0,1-.1.49Zm.32.36v-.07l1.4,1.3Z"/><path class="cls-1" d="M15.92,58.53v4.7A33,33,0,0,1,48.84,96.15h4.7A37.67,37.67,0,0,0,15.92,58.53Z"/><path class="cls-1" d="M23.57,50.88v4.7A33,33,0,0,1,56.49,88.5h4.7A37.66,37.66,0,0,0,23.57,50.88Z"/><path class="cls-1" d="M30.88,43.57v4.7A33,33,0,0,1,63.8,81.19h4.7A37.66,37.66,0,0,0,30.88,43.57Z"/><path class="cls-1" d="M38.54,35.92v4.7A32.94,32.94,0,0,1,71.45,73.53h4.71A37.66,37.66,0,0,0,38.54,35.92Z"/></svg>