<svg id="Layer_1" data-name="Layer 1" xmlns="http://www.w3.org/2000/svg" viewBox="0 0 91.23 111.86"><defs><style>.cls-1{fill:#fff;}</style></defs><title>frozen</title><path class="cls-1" d="M91,60.4c0-2.13-.07-3.68-.07-4.46,0-6.43-1.64-43.26-1.83-47.43-.13-2.94-.25-5.47-2-7.07C85.79.27,84-.15,80.93.05,76,.37,67.32,1.49,59.63,2.48c-2.54.33-5,.65-7.17.91H52.4c-3.09.38-5.48.64-6.32.64h-.93c-1.43,0-7.31-.76-13.54-1.56C24,1.5,15.32.38,10.4.06,8.12-.09,5.79,0,4.17,1.42s-1.9,3.41-2,6.09C2.07,9.21.27,49.23.27,55.94c0,.78,0,2.33-.06,4.46C0,71.19-.39,93.63,1,103.49c.86,5.92,3.25,8.37,8.39,8.37.43,0,.88,0,1.35,0,3.89-.28,9.91-1,15.9-1.77h.05l4.88-.63c6.23-.8,12.11-1.56,13.54-1.56h.93c1.43,0,7.32.76,13.55,1.56,7.21.93,15.37,2,20.39,2.37,6.47.49,9.23-1.76,10.17-8.3C91.63,93.62,91.22,71.18,91,60.4Zm-4.58,42.54c-.67,4.6-1.65,5.4-6.14,5.06-4.92-.38-13-1.42-20.2-2.35-7.66-1-12.44-1.59-14-1.59h-.93q-.54,0-1.53.09c1.42-.6,2.71-1.17,3.86-1.67a39.25,39.25,0,0,1,5.21-2.07,1.9,1.9,0,0,0,0-3.79c-1.18,0-2.8.69-6.7,2.39a136.64,136.64,0,0,1-19.85,7.29c-5.91.75-11.82,1.46-15.6,1.73-4.06.29-5.07-.62-5.72-5.09-1.39-9.55-1-32.62-.8-42.47,0-2.16.07-3.71.07-4.52,0-6.64,1.79-46.57,1.87-48.27.06-1.23.2-2.93.76-3.44a3.72,3.72,0,0,1,2.25-.45c.37,0,.77,0,1.21,0,4.8.31,13.39,1.42,21,2.4,3.75.48,6.8.87,9.13,1.14C36.89,8.7,34,10,31.63,11a38.54,38.54,0,0,1-5.09,2.07,1.9,1.9,0,0,0,0,3.79c1.18,0,2.77-.69,6.6-2.39A129.7,129.7,0,0,1,53,7.14l7.09-.9c7.63-1,16.28-2.1,21.06-2.41,2.25-.14,3.09.15,3.39.43.61.54.7,2.51.78,4.41C86,23.8,87.17,50.78,87.17,55.94c0,.81,0,2.37.07,4.53C87.42,70.32,87.83,93.38,86.45,102.94ZM57.14,51.49,49.4,56l7.74,4.47L65.53,58a1.89,1.89,0,1,1,1.06,3.63L61.68,63l4.87,2.81a1.9,1.9,0,0,1-1.89,3.29l-4.87-2.81,1.21,5a1.89,1.89,0,1,1-3.68.9L55.24,63.7l-7.73-4.46v8.93l6.31,6A1.9,1.9,0,0,1,51.2,77l-3.69-3.54V79a1.9,1.9,0,0,1-3.79,0V73.41L40,77a1.9,1.9,0,0,1-2.62-2.74l6.31-6V59.24L36,63.7l-2.08,8.49a1.89,1.89,0,0,1-3.68-.9l1.21-5-4.87,2.81a1.9,1.9,0,0,1-1.89-3.29L29.55,63l-4.91-1.42A1.9,1.9,0,1,1,25.7,58l8.39,2.44L41.83,56l-7.74-4.46L25.7,53.93a1.9,1.9,0,0,1-1.06-3.64l4.91-1.42-4.87-2.81a1.9,1.9,0,0,1,1.89-3.29l4.87,2.81-1.21-5a1.89,1.89,0,0,1,3.68-.9L36,48.21l7.73,4.46V43.74l-6.31-6A1.9,1.9,0,0,1,40,35l3.69,3.53V32.87a1.9,1.9,0,0,1,3.79,0V38.5L51.2,35a1.9,1.9,0,0,1,2.62,2.74l-6.31,6v8.93l7.73-4.46,2.08-8.49a1.89,1.89,0,1,1,3.68.9l-1.21,5,4.87-2.81a1.9,1.9,0,0,1,1.89,3.29l-4.87,2.81,4.91,1.42a1.9,1.9,0,1,1-1.06,3.64Z"/></svg>