<svg id="Layer_1" data-name="Layer 1" xmlns="http://www.w3.org/2000/svg" viewBox="0 0 76.49 86.42"><defs><style>.cls-1{fill:#fff;}</style></defs><title>vegetarian</title><path class="cls-1" d="M76.29,9.22A2.24,2.24,0,0,0,74.4,7.91c-2.9-.22-6.74-.28-9.17.57A38.17,38.17,0,0,0,65.13,2,2.25,2.25,0,0,0,61.5.48C59,2.41,55.88,5.21,54.85,7.59a9.82,9.82,0,0,0-.66,2.17,44.26,44.26,0,0,0-2.93-3.38,2.26,2.26,0,0,0-3.82,1c-.73,3-1.47,7.2-.79,9.71a10.06,10.06,0,0,0,.44,1.31,34.56,34.56,0,0,0-7.27-6.87,2.44,2.44,0,0,0-3.89,1.79c-.08,1.05-.12,2.09-.14,3.07A1.27,1.27,0,0,0,37,17.7h0a1.27,1.27,0,0,0,1.27-1.25c0-.89.05-1.82.11-2.77,3.75,2.81,6.35,5.41,7.14,7.15,1.3,2.81.88,5.12-1.09,6s-4-.29-5.28-3.1a9,9,0,0,1-.61-2.25,1.25,1.25,0,0,0-1.44-1.05,1.27,1.27,0,0,0-1.06,1.45,11.39,11.39,0,0,0,.81,2.9,11.23,11.23,0,0,0,.82,1.51,40.68,40.68,0,0,0-9.5-5.57,2.61,2.61,0,0,0-3.65,2.77c.55,3.56,1.51,8.21,3.11,11.18-.35.34-.7.7-1.06,1.07l-.19.18a65.09,65.09,0,0,0-8.13-2.78,2.77,2.77,0,0,0-2.74.76,2.82,2.82,0,0,0-.66,2.78c.31,1,.77,2.38,1.34,3.89A19.65,19.65,0,0,0,9,44.22a5.66,5.66,0,0,0-3.63.51,5.94,5.94,0,0,0-3,3.56,6.2,6.2,0,0,0,1.32,6A34,34,0,0,0,.26,64a1.27,1.27,0,0,0,1,1.47l.22,0a1.26,1.26,0,0,0,1.24-1,31.53,31.53,0,0,1,3-8.68l.3.11a77.2,77.2,0,0,0,13.19,2.91,52.54,52.54,0,0,0-.36,10.75,3.38,3.38,0,0,0,3.39,3.11H40a3.39,3.39,0,0,0,3.4-3.28,77,77,0,0,0-.24-10.46,72.38,72.38,0,0,0,12-2.69,36.08,36.08,0,0,1,3.88,8.37,1.27,1.27,0,0,0,1.21.91,1.49,1.49,0,0,0,.36,0,1.28,1.28,0,0,0,.86-1.58,38.76,38.76,0,0,0-3.94-8.63A6.14,6.14,0,0,0,60,48.33a5.86,5.86,0,0,0-4.46-4.11c1.1-.46,2.09-.9,2.84-1.26a2.62,2.62,0,0,0,.27-4.58c-1.37-.85-2.94-1.76-4.55-2.59,2.94-.46,6.73-2.3,9.55-3.87a2.43,2.43,0,0,0,0-4.28c-.66-.35-1.37-.72-2.1-1.08a29.1,29.1,0,0,0,7.88-3,2.23,2.23,0,0,0,1.2-2,2.27,2.27,0,0,0-1.14-2l-1.57-.85A10,10,0,0,0,69,18.28c2.36-1.07,5.11-4.28,7-6.77A2.25,2.25,0,0,0,76.29,9.22ZM57.18,8.59c.6-1.38,2.58-3.48,5.47-5.79a23.64,23.64,0,0,1-.26,7.36A6,6,0,0,0,61,12a4.64,4.64,0,0,0-.36,1l-.56.37a2.28,2.28,0,0,1-2,0C56.53,12.67,56.18,10.89,57.18,8.59Zm3.75,7.61-.51,0,.38-.27.12.29ZM49.78,8.51c2.53,2.7,4.19,5.06,4.58,6.52a5.9,5.9,0,0,1,.2,2.44c-.8.67-1.66,1.41-2.55,2.22a2.23,2.23,0,0,1-1.25-.44,4.91,4.91,0,0,1-1.67-2.8C48.7,15,49,12.11,49.78,8.51ZM54.43,24a9,9,0,0,0-1.66-.17h-.05a13.76,13.76,0,0,0-1.47.1c.65-.64,1.29-1.25,1.91-1.82l.26-.06.31-.1A4.91,4.91,0,0,0,54.43,24Zm-5.14-2.69a4.6,4.6,0,0,0,.6.37c-.36.36-.73.72-1.1,1.1A10.23,10.23,0,0,0,48,20,5.53,5.53,0,0,0,49.29,21.31Zm-4,9.27a5.48,5.48,0,0,0,1.06,2.66,11.9,11.9,0,0,0-3.3.32C43.75,32.53,44.5,31.53,45.26,30.58Zm-2.51-.92c-.52.67-1,1.37-1.55,2.08a11,11,0,0,0-1.61-3.36A5.86,5.86,0,0,0,42.75,29.66ZM27.09,23.14s0,0,0-.07a0,0,0,0,1,.07,0c5,2.24,8.64,4.54,10,6.32,1.74,2.28,2.18,4.47,1.28,6.08-.51-.35-.93-.69-1.33-1a7.35,7.35,0,0,0-4.61-2,4.77,4.77,0,0,0-2.8.68A37.48,37.48,0,0,1,27.09,23.14Zm-9.7,12.55a.22.22,0,0,1,.25-.07,64,64,0,0,1,6.79,2.23A8.67,8.67,0,0,1,19.63,40c-.29,0-.58.06-.86.1C18.15,38.49,17.66,37,17.33,36A.25.25,0,0,1,17.39,35.69Zm2.47,6.83c3.49-.33,5.84-2.27,7.71-4.11l0,0,.82-.83c1.65-1.67,2.72-2.68,3.89-2.59a4.89,4.89,0,0,1,3.21,1.45,15.41,15.41,0,0,0,6,3.2c5.47,1.68,8.57,3,9.86,5.22a71.5,71.5,0,0,1-28.17,2.3,78.77,78.77,0,0,1-11.08-2A17.93,17.93,0,0,1,19.86,42.52Zm21,26.72a.87.87,0,0,1-.88.85H22.31a.88.88,0,0,1-.87-.8,50.34,50.34,0,0,1,.35-10.21,91.25,91.25,0,0,0,10.06.57,84.68,84.68,0,0,0,8.8-.46A73.91,73.91,0,0,1,40.88,69.24ZM55.86,47a3.36,3.36,0,0,1,1.68,2.07,3.53,3.53,0,0,1-2.14,4.39,74.34,74.34,0,0,1-23.55,3.66A84.21,84.21,0,0,1,6.91,53.46,3.53,3.53,0,0,1,4.8,49a3.37,3.37,0,0,1,1.69-2,3.22,3.22,0,0,1,1.41-.34,3.18,3.18,0,0,1,1,.17,73.9,73.9,0,0,0,14,2.81c7.56.83,19,1,30.54-2.82A3,3,0,0,1,55.86,47Zm1.42-6.47a.07.07,0,0,1,0,.07.08.08,0,0,1,0,.07c-1.1.52-2.69,1.23-4.4,1.88C50.8,40,47,38.65,42.24,37.18l-.61-.2a7,7,0,0,1,4.83-1.2C48.69,35.91,52.64,37.64,57.28,40.53Zm5-10.74c-4.09,2.26-7.53,3.57-9.44,3.59-3.1,0-5-1.31-5-3.47a3,3,0,0,1,1.09-2.41,6.2,6.2,0,0,1,3.9-1.14h0C54.69,26.36,58.14,27.61,62.24,29.79Zm-2-5.65h-.05a5,5,0,0,1-3.12-.92,2.3,2.3,0,0,1-.83-1.86,2.26,2.26,0,0,1,.88-1.83,4.82,4.82,0,0,1,3-.84h.13c1.51,0,4.21,1,7.45,2.83C64.47,23.2,61.77,24.14,60.24,24.14ZM68,16a4.88,4.88,0,0,1-3.22.49,2.42,2.42,0,0,1-1.52-3.36A4.9,4.9,0,0,1,65.74,11c1.38-.62,4.26-.84,8-.6C71.44,13.33,69.37,15.35,68,16Z"/><path class="cls-1" d="M59.74,78.06a13.25,13.25,0,0,0,2.67-8.61,1.27,1.27,0,1,0-2.53,0,10.69,10.69,0,0,1-2.82,7.81,1.26,1.26,0,0,0-.33,1,1.24,1.24,0,0,0,.47.9A4.33,4.33,0,0,1,59,81.72a.72.72,0,0,1-.14.6c-.54.67-2.77.72-5-.72a7,7,0,0,1-.76-.55,1.25,1.25,0,0,0-1.3-.18c-4.62,2-11.2,3-19.55,3-9,0-16.09-1.18-21.06-3.49a1.28,1.28,0,0,0-1.42.24,7.83,7.83,0,0,1-1.22,1C6.25,83,4,83,3.48,82.32a.79.79,0,0,1-.13-.67,5,5,0,0,1,2.36-2.9,1.25,1.25,0,0,0,.56-.91,1.27,1.27,0,0,0-.34-1,12.21,12.21,0,0,1-3.4-7.47,1.26,1.26,0,0,0-1.39-1.13A1.26,1.26,0,0,0,0,69.6a14.75,14.75,0,0,0,3.16,7.91A6.65,6.65,0,0,0,.85,81.26a3.28,3.28,0,0,0,.66,2.65c1.56,1.94,5.16,1.86,8.36-.18a9.92,9.92,0,0,0,1-.69c5.25,2.24,12.43,3.38,21.37,3.38,8.31,0,15-1,19.87-2.94.12.09.25.17.38.25,3.2,2,6.8,2.12,8.36.18a3.29,3.29,0,0,0,.69-2.47A6.1,6.1,0,0,0,59.74,78.06Z"/><path class="cls-1" d="M39.68,40.55a1.26,1.26,0,0,0-1.26,1.26V42A1.27,1.27,0,0,0,41,42v-.15A1.27,1.27,0,0,0,39.68,40.55Z"/><path class="cls-1" d="M35.48,40.88a1.26,1.26,0,0,0-1.27,1.26v.14a1.27,1.27,0,1,0,2.53,0v-.14A1.25,1.25,0,0,0,35.48,40.88Z"/><path class="cls-1" d="M32.42,37.29a1.27,1.27,0,0,0-1.27,1.26v.15a1.27,1.27,0,0,0,2.54,0v-.15A1.27,1.27,0,0,0,32.42,37.29Z"/><path class="cls-1" d="M28.92,41.18a1.27,1.27,0,0,0-1.27,1.27v.14a1.27,1.27,0,1,0,2.53,0v-.14A1.26,1.26,0,0,0,28.92,41.18Z"/></svg>