<svg id="Layer_1" data-name="Layer 1" xmlns="http://www.w3.org/2000/svg" viewBox="0 0 95.09 157.3"><defs><style>.cls-1{fill:#fff;}</style></defs><title>sauces</title><path class="cls-1" d="M69.33,99.58,64.1,74.74a1.65,1.65,0,0,0-3.22.68l5.23,24.84A75,75,0,0,1,67.43,113v31.27a4.94,4.94,0,0,1-4.94,4.94H34A4.94,4.94,0,0,1,29,144.22V112.94a74,74,0,0,1,1.33-12.68l5.22-24.84a1.65,1.65,0,0,0-3.22-.68L27.11,99.58a78.84,78.84,0,0,0-1.39,13.36v31.28A8.24,8.24,0,0,0,34,152.45H62.49a8.24,8.24,0,0,0,8.23-8.23V112.94A78.84,78.84,0,0,0,69.33,99.58Z"/><path class="cls-1" d="M44.93,128a1.65,1.65,0,1,0,1.64,1.65A1.65,1.65,0,0,0,44.93,128Z"/><path class="cls-1" d="M49.87,134.24a1.65,1.65,0,1,0,1.64-1.65A1.65,1.65,0,0,0,49.87,134.24Z"/><path class="cls-1" d="M48.22,111.3a6.65,6.65,0,0,0-4.6,1.79,3.56,3.56,0,0,1-5.07,0A6.65,6.65,0,0,0,34,111.3a1.64,1.64,0,0,0-1.64,1.64v31.28A1.64,1.64,0,0,0,34,145.87H62.49a1.64,1.64,0,0,0,1.64-1.65V112.94a1.64,1.64,0,0,0-1.64-1.64,6.65,6.65,0,0,0-4.6,1.79,3.56,3.56,0,0,1-5.07,0A6.65,6.65,0,0,0,48.22,111.3ZM60,115.66a8.81,8.81,0,0,1,.89-.66v27.58H35.6V115a7.35,7.35,0,0,1,.89.65,6.82,6.82,0,0,0,9.19,0,3.55,3.55,0,0,1,5.08,0,6.82,6.82,0,0,0,9.19,0Z"/><path class="cls-1" d="M34,63.56H62.49a1.64,1.64,0,0,0,1.64-1.65V55.33a6,6,0,0,0-6-6H38.34a6,6,0,0,0-6,6v6.58A1.64,1.64,0,0,0,34,63.56Zm1.65-8.23a2.75,2.75,0,0,1,2.74-2.75H58.1a2.75,2.75,0,0,1,2.74,2.75v4.93H35.6Z"/><path class="cls-1" d="M34,70.14H62.49a1.65,1.65,0,0,0,0-3.29H34a1.65,1.65,0,0,0,0,3.29Z"/><path class="cls-1" d="M34.52,59.7H16.84a2,2,0,0,0,0,3.92H34A30.55,30.55,0,0,1,34.52,59.7Z"/><path class="cls-1" d="M33.92,40.94l2.66,2.47v9.24a6.26,6.26,0,0,1,3.06-1.44c.12-.08.24-.18.37-.26l.49-.28V43.16a3.34,3.34,0,0,0-1.07-2.45l-2.66-2.47V37a3,3,0,0,0,.84-.68,3.21,3.21,0,0,0,.75-2.55L37.51,28a3.21,3.21,0,0,0-3.16-2.73H27.66L25.24,3.37A3.78,3.78,0,0,0,21.47,0H19a3.78,3.78,0,0,0-3.77,3.37L12.84,25.22H6.15A3.21,3.21,0,0,0,3,28l-.85,5.81a3.24,3.24,0,0,0,.74,2.55,3.07,3.07,0,0,0,.85.68v1.25L1.07,40.71A3.34,3.34,0,0,0,0,43.16v82.63a8,8,0,0,0,8,8H25.08c.13-1.3.29-2.61.46-3.92H8a4,4,0,0,1-4-4V110.42H28.68c.23-1.3.45-2.61.67-3.92H3.92V63.62h3.8a2,2,0,1,0,0-3.92H3.92V43.41l2.66-2.47a3.36,3.36,0,0,0,1.07-2.45V37.41h25.2v1.08A3.36,3.36,0,0,0,33.92,40.94Zm-14.78-37h2.22l2.36,21.3H16.78Zm-13,29.57.64-4.35H33.72l.64,4.35Z"/><polygon class="cls-1" points="36.76 43.58 36.76 43.58 36.76 43.58 36.76 43.58"/><path class="cls-1" d="M94,40.71l-2.66-2.47V37a3,3,0,0,0,.84-.68A3.21,3.21,0,0,0,93,33.76L92.1,28a3.21,3.21,0,0,0-3.16-2.73H82.25L79.83,3.37A3.78,3.78,0,0,0,76.06,0H73.61a3.78,3.78,0,0,0-3.76,3.37L67.43,25.22h-6.7A3.2,3.2,0,0,0,57.58,28l-.85,5.81a3.24,3.24,0,0,0,.74,2.55,3.07,3.07,0,0,0,.85.68v1.25l-2.66,2.47a3.34,3.34,0,0,0-1.07,2.45V49.4a5.73,5.73,0,0,1,3.16.53l.76.13V43.41l2.66-2.47a3.36,3.36,0,0,0,1.07-2.45V37.41h25.2v1.08a3.36,3.36,0,0,0,1.07,2.45l2.66,2.47V59.7H62.41a14.28,14.28,0,0,1-.3,2.08,5.15,5.15,0,0,1-.31,1c0,.3.07.59.1.88H91.17V106.5H72.71a2,2,0,1,0,0,3.92H91.17v15.37a4.05,4.05,0,0,1-4,4H68.84c0,1.31,0,2.61-.11,3.92H87.12a8,8,0,0,0,8-8V43.16A3.34,3.34,0,0,0,94,40.71ZM73.73,3.92H76l2.36,21.3H71.37Zm-13,29.57.64-4.35H88.31L89,33.49Z"/></svg>