<svg id="Layer_1" data-name="Layer 1" xmlns="http://www.w3.org/2000/svg" viewBox="0 0 127 81.37"><defs><style>.cls-1{fill:#fff;}</style></defs><title>produce</title><path class="cls-1" d="M119.48,43.63c-.24-1.24-.34-1.93.29-2.7,2.21-2.72,3-5.63,2.25-8a5.9,5.9,0,0,0-3.48-3.55,6.58,6.58,0,0,0,1.15-3.32,5.52,5.52,0,0,0-1.9-4.6,6,6,0,0,0-2.18-1.23,6.54,6.54,0,0,0-3.21-.15c-2.4-3.53-5.2-5.6-8.32-6.15a10.32,10.32,0,0,0-6.75,1.21,6.91,6.91,0,0,0-3.11-2.78,6.21,6.21,0,0,0-2.47-.47,5.54,5.54,0,0,0-4.42,2.27,6.57,6.57,0,0,0-1.27,3.28,5.88,5.88,0,0,0-5,.45c-2.12,1.29-3.39,4-3.47,7.55,0,1-.53,1.45-1.52,2.23a5.66,5.66,0,0,0-2.63,5.17c.08,1.64.93,3.29,1.92,5.2,2.15,4.18,4.83,9.38,1.72,17.84l-1.79,4.88a12.42,12.42,0,1,0,23.31,8.57l1.79-4.88C103.55,56,109,53.77,113.31,52c2-.81,3.71-1.52,4.82-2.71A5.64,5.64,0,0,0,119.48,43.63ZM77.14,37.16a12.23,12.23,0,0,1-1.7-4.4c-.1-2,.78-2.67,1.89-3.55a4.7,4.7,0,0,0,2.26-3.72c.06-2.79,1-5,2.53-5.93a4.43,4.43,0,0,1,4.19.06,20.87,20.87,0,0,0,1,2.58c.85,2,1.21,2.83-1.08,9.06l-1.88,5.11-.84-9.49a1,1,0,0,0-1.94.17l1.2,13.6-2.31,6.29A25.32,25.32,0,0,0,77.14,37.16Zm39.57,10.78a12.47,12.47,0,0,1-4.14,2.24,25.39,25.39,0,0,0-8.84,5.33L106,49.22l9.73-9.58a1,1,0,0,0-1.37-1.39l-6.78,6.69.36-1a1,1,0,0,0-1.83-.67L96.82,68.66a10.47,10.47,0,1,1-19.65-7.22l15.43-42a1,1,0,0,0-1.83-.67L89.45,22.4c-.12-.31-.25-.63-.39-1a19.34,19.34,0,0,1-1-2.77,4.15,4.15,0,0,1,.82-3.32,3.61,3.61,0,0,1,2.9-1.49,4,4,0,0,1,1.68.32,5.89,5.89,0,0,1,3.09,4.07,9.05,9.05,0,0,1-1.35,7.65,5.36,5.36,0,0,0-.77,5.46,6.52,6.52,0,0,1,0,4.65h0c-.91,2.47-2.45,3.41-4.23,4.49s-3.82,2.33-4.92,5.31l-3.51,9.56a1,1,0,1,0,1.83.67l3.51-9.56c.86-2.34,2.36-3.26,4.1-4.32A15.16,15.16,0,0,0,94.13,40c-.61,3.59-2.35,6.31-4.3,9.34a43.23,43.23,0,0,0-4.66,8.79,1,1,0,0,0,.58,1.25A1,1,0,0,0,87,58.82a42,42,0,0,1,4.47-8.41c2.59-4,5-7.83,4.84-13.91a8.45,8.45,0,0,0,0-5.68c-.41-1.43-.65-2.29.46-3.76a11,11,0,0,0,1.67-9.32,7.13,7.13,0,0,0-.26-.82,8.48,8.48,0,0,1,5.6-1.06c2.44.44,4.69,2.07,6.7,4.86a10.05,10.05,0,0,0-1.55.88,11.19,11.19,0,0,0-4.58,6.84l-.12-.22a10.81,10.81,0,0,1-1.55-5.8,1,1,0,0,0-1-1,1,1,0,0,0-1,1,12.7,12.7,0,0,0,1.79,6.71,5,5,0,0,1,.88,2.77,6.93,6.93,0,0,1-1.31,1,8.44,8.44,0,0,0-3.76,4.51,9.54,9.54,0,0,0,0,6.66,64,64,0,0,1-6.61,11.32A53.59,53.59,0,0,0,84,70.49l-.38,1.06a1,1,0,0,0,.57,1.25,8.27,8.27,0,0,0,10.6-4.9l6-16.39c1.09-3,.35-5.24-.31-7.23s-1.22-3.69-.31-6.16a6.53,6.53,0,0,1,3-3.56,5.39,5.39,0,0,0,3-4.66A9,9,0,0,1,110,23.2a5.86,5.86,0,0,1,5-1.1,3.92,3.92,0,0,1,1.48.84,3.57,3.57,0,0,1,1.24,3A4.17,4.17,0,0,1,116.23,29a19.16,19.16,0,0,1-2.56,1.46c-.33.17-.63.32-.92.49l1.33-3.62a1,1,0,0,0-.58-1.24,1,1,0,0,0-1.25.57l-4.66,12.7a1,1,0,0,0,1.82.67l.09-.23c2.28-6.22,3.09-6.62,5-7.59a23.86,23.86,0,0,0,2.4-1.35,4.42,4.42,0,0,1,3.23,2.67c.56,1.69-.15,4-1.91,6.16a4.7,4.7,0,0,0-.69,4.29C117.84,45.39,118.06,46.5,116.71,47.94Zm-17.51-1a6.67,6.67,0,0,1-.26,4l-6,16.39a6.32,6.32,0,0,1-7.16,4l0-.09a51.16,51.16,0,0,1,7.54-14.56A65.68,65.68,0,0,0,99.2,46.89Z"/><path class="cls-1" d="M70.58,36.31l-3.13-2.48,1-8.31a.66.66,0,0,0,0-.14,6.24,6.24,0,0,0-4.75-6.06,6.52,6.52,0,0,1,2.86-3.39,1.13,1.13,0,0,0-1-2,8.77,8.77,0,0,0-4.06,4.71c.63-4,2.24-9.85,6.4-14a1.15,1.15,0,0,0,.18-1.37,1.12,1.12,0,0,0-1.26-.53A15.42,15.42,0,0,0,61.19,6,20.4,20.4,0,0,0,55,16.12a10,10,0,0,0-4.5-4.22,13.74,13.74,0,0,0-5.68-1.31H44.6a1.14,1.14,0,0,0-1.05.87,1.12,1.12,0,0,0,.55,1.25,11.24,11.24,0,0,1,5.32,6.67,6.25,6.25,0,0,0-4.48,6,.66.66,0,0,0,0,.14l1.64,13.06a1.13,1.13,0,0,0,2.25-.28L48.29,34h3.4a1.14,1.14,0,0,0,0-2.27H48l-.44-3.46h12a1.14,1.14,0,0,0,0-2.27H47.29l-.09-.69a4,4,0,0,1,4-3.91H62.26a4,4,0,0,1,4,3.91L64.71,37.46h-10a1.14,1.14,0,1,0,0,2.27h9.69L64,43.19H59.76a1.14,1.14,0,0,0,0,2.27h4L61.83,60.38h-4.1a1.14,1.14,0,1,0,0,2.27h3.82l-.69,5.45a.76.76,0,0,0,0,.15,4,4,0,0,1-4,4h-.3a4,4,0,0,1-4-3.85h4.83a1.14,1.14,0,1,0,0-2.27H52.33l-1.14-9.19h7.89a1.14,1.14,0,1,0,0-2.27H50.91l-.43-3.46H55.6a1.14,1.14,0,0,0,0-2.27H50.2l-.88-7.05a1.13,1.13,0,0,0-1.26-1,1.14,1.14,0,0,0-1,1.26l1.68,13.48a.88.88,0,0,0,0,.16,1,1,0,0,0,.09.44l.9,7.25L48,65.05a1.13,1.13,0,0,0,.76,2,1.17,1.17,0,0,0,.76-.29l.56-.51.26,2.1a6.26,6.26,0,0,0,6.25,6.17h.3a6.26,6.26,0,0,0,6.25-6.17L65,53.52,66.5,54.7a1.13,1.13,0,0,0,1.39-1.79l-2.59-2,1.82-14.44,2.06,1.62a1.09,1.09,0,0,0,.7.25,1.14,1.14,0,0,0,.89-.43A1.13,1.13,0,0,0,70.58,36.31ZM51.69,19.13a13.56,13.56,0,0,0-2.94-5.53,8,8,0,0,1,5,5.53Zm7.55,0H56.62a19.06,19.06,0,0,1,6-11.37l.48-.4A32,32,0,0,0,59.24,19.13Z"/><path class="cls-1" d="M36.08,34.65a14.09,14.09,0,0,0-12.72-8.5A10,10,0,1,0,9.12,37.92a13.81,13.81,0,0,0-.21,2.4A14.07,14.07,0,0,0,12.7,50,16.21,16.21,0,0,0,28.9,65.43,16.62,16.62,0,0,0,32.82,65a1.13,1.13,0,0,0-.55-2.2A14,14,0,0,1,15,49.47a1.18,1.18,0,0,0-.33-.78,11.9,11.9,0,0,1-3.11-11.15,1.12,1.12,0,0,0-.66-1.3,7.71,7.71,0,1,1,10.53-8.71,1.14,1.14,0,0,0,1.16.89h.55a11.84,11.84,0,0,1,11.06,7.5,1.15,1.15,0,0,0,.58.61,14,14,0,0,1,1.84,24.36,59.5,59.5,0,0,0-2-6.13.19.19,0,0,0,0-.07l-.08-.2a59.12,59.12,0,0,0-3-6.5c0-4.68,2.61-6.72,2.75-6.82a1.14,1.14,0,0,0-1.33-1.84,9.84,9.84,0,0,0-3.32,5.41c-.76-1.22-1.57-2.41-2.42-3.58A49.59,49.59,0,0,0,16.9,30.54a1.13,1.13,0,1,0-1.31,1.85,38.94,38.94,0,0,1,4.75,4.27,9.34,9.34,0,0,0-3.35.63,1.15,1.15,0,0,0-.58,1.5,1.13,1.13,0,0,0,1.5.57,7.26,7.26,0,0,1,4.81-.07c.84,1,1.71,2.08,2.58,3.28a58,58,0,0,1,6,10.41,26,26,0,0,0-9.95-1.28A1.13,1.13,0,1,0,21.59,54a23.34,23.34,0,0,1,11,2,60.25,60.25,0,0,1,3.85,17.5,1.13,1.13,0,0,0,1.12,1h.08a1.12,1.12,0,0,0,1-1.21,63.72,63.72,0,0,0-1.5-10.1,16.23,16.23,0,0,0-1.07-28.53Z"/></svg>