<svg id="Layer_1" data-name="Layer 1" xmlns="http://www.w3.org/2000/svg" viewBox="0 0 51.12 100.11"><defs><style>.cls-1{fill:#fff;}</style></defs><title>bev</title><path class="cls-1" d="M50.68,25a1.6,1.6,0,0,0-1.16-.5H30.35V11.18A1.6,1.6,0,0,1,32,9.58h16A1.59,1.59,0,0,0,49.52,8V1.6A1.6,1.6,0,0,0,47.92,0H32A11.19,11.19,0,0,0,20.77,11.18V24.49H1.6A1.61,1.61,0,0,0,0,26.16L2.26,77.25a1.6,1.6,0,0,0,3.19-.14L3.27,27.69H47.85L44.8,96.91H6.32L5.73,83.49a1.6,1.6,0,1,0-3.19.14l.66,15a1.6,1.6,0,0,0,1.59,1.53H46.33a1.6,1.6,0,0,0,1.59-1.53l3.2-72.42A1.59,1.59,0,0,0,50.68,25ZM24,11.18a8,8,0,0,1,8-8H46.33v3.2H32a4.8,4.8,0,0,0-4.79,4.79V24.49H24Z"/><circle class="cls-1" cx="35.08" cy="64.96" r="1.6"/><circle class="cls-1" cx="16.37" cy="79.87" r="1.6"/><path class="cls-1" d="M22.36,30.88a1.6,1.6,0,0,0-1.59,1.6v6.31l-.38.26a4.93,4.93,0,0,1-3.33,1.21,4.93,4.93,0,0,1-3.33-1.21,8.13,8.13,0,0,0-5.17-1.78A1.61,1.61,0,0,0,7,38.94L9.31,92.19a1.6,1.6,0,0,0,1.6,1.53h29.3a1.6,1.6,0,0,0,1.6-1.53l2.35-53.25a1.59,1.59,0,0,0-.44-1.17,1.6,1.6,0,0,0-1.16-.5,8.11,8.11,0,0,0-5.17,1.78,5.19,5.19,0,0,1-6.66,0l-.38-.26V32.48a1.6,1.6,0,1,0-3.19,0v4.93a9.21,9.21,0,0,0-3.2,0V32.48a1.6,1.6,0,0,0-1.6-1.6ZM10.24,40.72a7.1,7.1,0,0,1,1.65,1,8.11,8.11,0,0,0,5.17,1.78,7.72,7.72,0,0,0,3.71-.86V90.52H12.44l-2.2-49.8Zm23.82,2.73a8.11,8.11,0,0,0,5.17-1.78,6.9,6.9,0,0,1,1.65-1l-2.2,49.8H30.35V42.59a7.72,7.72,0,0,0,3.71.86Zm-8.5-3a4.88,4.88,0,0,1,1.6.23V90.52H24V40.7A4.84,4.84,0,0,1,25.56,40.47Z"/></svg>